<svg width="29" height="29" viewBox="0 0 29 29" fill="none" xmlns="http://www.w3.org/2000/svg">
<path d="M13.3532 7.67466C13.5247 7.49268 13.6996 7.42851 13.9352 7.42147C14.4064 7.40739 14.7703 7.75023 14.7844 8.22142L15.1364 20.0013C15.1505 20.4725 14.8076 20.8364 14.3364 20.8505C13.8652 20.8646 13.5013 20.5217 13.4872 20.0506L13.1352 8.27069C13.1282 8.0351 13.1818 7.85664 13.3532 7.67466Z" fill="white"/>
<path d="M8.24594 14.3118C8.58877 13.9479 9.05997 13.9338 9.42392 14.2766L14.2767 18.8478L18.8478 13.9951C19.1906 13.6311 19.6618 13.617 20.0258 13.9599C20.3897 14.3027 20.4038 14.7739 20.061 15.1378L14.9184 20.5972C14.5756 20.9611 14.1044 20.9752 13.7405 20.6324L8.28113 15.4898C7.91718 15.147 7.9031 14.6758 8.24594 14.3118Z" fill="white"/>
</svg>
