<svg width="29" height="29" viewBox="0 0 29 29" fill="none" xmlns="http://www.w3.org/2000/svg">
<g clip-path="url(#clip0_278_180327)">
<path d="M7.66034 14.7316C7.48356 14.5548 7.42464 14.3781 7.42464 14.1424C7.42464 13.671 7.77819 13.3174 8.24959 13.3174L20.0347 13.3174C20.5061 13.3174 20.8597 13.671 20.8597 14.1424C20.8597 14.6138 20.5061 14.9673 20.0347 14.9673L8.24959 14.9673C8.01389 14.9673 7.83711 14.9084 7.66034 14.7316Z" fill="black"/>
<path d="M14.1421 20.0345C13.7886 19.681 13.7886 19.2096 14.1421 18.856L18.8562 14.142L14.1421 9.42792C13.7886 9.07437 13.7886 8.60297 14.1421 8.24941C14.4957 7.89586 14.9671 7.89586 15.3206 8.24941L20.6239 13.5527C20.9775 13.9063 20.9775 14.3777 20.6239 14.7312L15.3206 20.0345C14.9671 20.3881 14.4957 20.3881 14.1421 20.0345Z" fill="black"/>
</g>
<defs>
<clipPath id="clip0_278_180327">
<rect width="20" height="20" fill="white" transform="translate(14.1422) rotate(45)"/>
</clipPath>
</defs>
</svg>
